<svg width="128" height="128" viewBox="0 0 128 128" fill="none" xmlns="http://www.w3.org/2000/svg">
<g clip-path="url(#clip0_3_61)">
<rect width="128" height="128" rx="64" fill="#4DA2FF"/>
<path fill-rule="evenodd" clip-rule="evenodd" d="M82.0114 57.5282C85.1396 61.523 87.0104 66.5751 87.0104 72.0706C87.0104 77.5662 85.0828 82.7725 81.8724 86.7896L81.5942 87.1368L81.5216 86.6964C81.4584 86.3236 81.3858 85.9444 81.3004 85.5653C79.692 78.3792 74.453 72.2185 65.8296 67.2274C60.0058 63.8659 56.6722 59.8229 55.797 55.224C55.2314 52.2513 55.6516 49.2657 56.4636 46.7074C57.2758 44.1525 58.4828 42.0089 59.5098 40.7202L62.8656 36.5487C63.4534 35.816 64.5562 35.816 65.1438 36.5487L82.0146 57.5282H82.0114ZM87.3168 53.3599L64.831 25.4001C64.4014 24.8666 63.5986 24.8666 63.169 25.4001L40.6863 53.3599L40.6137 53.4533C36.4774 58.6756 34 65.3121 34 72.5366C34 89.3607 47.4327 103 64 103C80.5674 103 94 89.3607 94 72.5366C94 65.3121 91.5226 58.6756 87.3864 53.4563L87.3136 53.3632L87.3168 53.3599ZM46.0676 57.4383L48.0773 54.9347L48.1374 55.3975C48.1847 55.7638 48.2448 56.1301 48.3143 56.4997C49.6162 63.4448 54.2644 69.2328 62.0346 73.716C68.7904 77.6272 72.7244 82.1234 73.8556 87.0532C74.3296 89.1101 74.4118 91.1347 74.2064 92.9055L74.1938 93.0148L74.0958 93.063C71.0466 94.5766 67.618 95.4282 63.9968 95.4282C51.2909 95.4282 40.9897 84.9707 40.9897 72.0674C40.9897 66.5269 42.8888 61.4394 46.0613 57.4318L46.0676 57.4383Z" fill="white"/>
</g>
<defs>
<clipPath id="clip0_3_61">
<rect width="128" height="128" rx="64" fill="white"/>
</clipPath>
</defs>
</svg>
